<?xml version="1.0" encoding="UTF-8" standalone="no"?><svg xmlns="http://www.w3.org/2000/svg" xmlns:xlink="http://www.w3.org/1999/xlink" contentScriptType="application/ecmascript" contentStyleType="text/css" height="234px" preserveAspectRatio="none" style="width:946px;height:234px;" version="1.1" viewBox="0 0 946 234" width="946px" zoomAndPan="magnify"><defs><filter height="300%" id="fiaqnykq2w2j8" width="300%" x="-1" y="-1"><feGaussianBlur result="blurOut" stdDeviation="2.0"/><feColorMatrix in="blurOut" result="blurOut2" type="matrix" values="0 0 0 0 0 0 0 0 0 0 0 0 0 0 0 0 0 0 .4 0"/><feOffset dx="4.0" dy="4.0" in="blurOut2" result="blurOut3"/><feBlend in="SourceGraphic" in2="blurOut3" mode="normal"/></filter></defs><g><!--cluster Lowest JSON Layer--><polygon fill="#FFFFFF" filter="url(#fiaqnykq2w2j8)" points="450,135,605,135,612,157.2969,706,157.2969,706,222,450,222,450,135" style="stroke: #000000; stroke-width: 1.5;"/><line style="stroke: #000000; stroke-width: 1.5;" x1="450" x2="612" y1="157.2969" y2="157.2969"/><text fill="#000000" font-family="sans-serif" font-size="14" font-weight="bold" lengthAdjust="spacingAndGlyphs" textLength="149" x="454" y="149.9951">Lowest JSON Layer</text><!--cluster Higher-level Types--><polygon fill="#FFFFFF" filter="url(#fiaqnykq2w2j8)" points="22,24,176,24,183,46.2969,924,46.2969,924,111,22,111,22,24" style="stroke: #000000; stroke-width: 1.5;"/><line style="stroke: #000000; stroke-width: 1.5;" x1="22" x2="183" y1="46.2969" y2="46.2969"/><text fill="#000000" font-family="sans-serif" font-size="14" font-weight="bold" lengthAdjust="spacingAndGlyphs" textLength="148" x="26" y="38.9951">Higher-level Types</text><!--entity JsonReader--><rect fill="#FFFF00" filter="url(#fiaqnykq2w2j8)" height="36.2969" style="stroke: #A80036; stroke-width: 1.5;" width="99" x="590.5" y="170"/><rect fill="#FFFF00" height="5" style="stroke: #A80036; stroke-width: 1.5;" width="10" x="585.5" y="175"/><rect fill="#FFFF00" height="5" style="stroke: #A80036; stroke-width: 1.5;" width="10" x="585.5" y="196.2969"/><text fill="#000000" font-family="sans-serif" font-size="14" lengthAdjust="spacingAndGlyphs" textLength="79" x="600.5" y="192.9951">JsonReader</text><!--entity JsonWriter--><rect fill="#90EE90" filter="url(#fiaqnykq2w2j8)" height="36.2969" style="stroke: #A80036; stroke-width: 1.5;" width="89" x="466.5" y="170"/><rect fill="#90EE90" height="5" style="stroke: #A80036; stroke-width: 1.5;" width="10" x="461.5" y="175"/><rect fill="#90EE90" height="5" style="stroke: #A80036; stroke-width: 1.5;" width="10" x="461.5" y="196.2969"/><text fill="#000000" font-family="sans-serif" font-size="14" lengthAdjust="spacingAndGlyphs" textLength="69" x="476.5" y="192.9951">JsonWriter</text><!--entity JsonStreamReader--><rect fill="#FFFF00" filter="url(#fiaqnykq2w2j8)" height="36.2969" style="stroke: #A80036; stroke-width: 1.5;" width="148" x="760" y="59"/><rect fill="#FFFF00" height="5" style="stroke: #A80036; stroke-width: 1.5;" width="10" x="755" y="64"/><rect fill="#FFFF00" height="5" style="stroke: #A80036; stroke-width: 1.5;" width="10" x="755" y="85.2969"/><text fill="#000000" font-family="sans-serif" font-size="14" lengthAdjust="spacingAndGlyphs" textLength="128" x="770" y="81.9951">JsonStreamReader</text><!--entity JsonPipeReader--><rect fill="#FFFF00" filter="url(#fiaqnykq2w2j8)" height="36.2969" style="stroke: #A80036; stroke-width: 1.5;" width="129" x="595.5" y="59"/><rect fill="#FFFF00" height="5" style="stroke: #A80036; stroke-width: 1.5;" width="10" x="590.5" y="64"/><rect fill="#FFFF00" height="5" style="stroke: #A80036; stroke-width: 1.5;" width="10" x="590.5" y="85.2969"/><text fill="#000000" font-family="sans-serif" font-size="14" lengthAdjust="spacingAndGlyphs" textLength="109" x="605.5" y="81.9951">JsonPipeReader</text><!--entity JsonStreamWriter--><rect fill="#90EE90" filter="url(#fiaqnykq2w2j8)" height="36.2969" style="stroke: #A80036; stroke-width: 1.5;" width="138" x="422" y="59"/><rect fill="#90EE90" height="5" style="stroke: #A80036; stroke-width: 1.5;" width="10" x="417" y="64"/><rect fill="#90EE90" height="5" style="stroke: #A80036; stroke-width: 1.5;" width="10" x="417" y="85.2969"/><text fill="#000000" font-family="sans-serif" font-size="14" lengthAdjust="spacingAndGlyphs" textLength="118" x="432" y="81.9951">JsonStreamWriter</text><!--entity JsonPipeWriter--><rect fill="#90EE90" filter="url(#fiaqnykq2w2j8)" height="36.2969" style="stroke: #A80036; stroke-width: 1.5;" width="119" x="267.5" y="59"/><rect fill="#90EE90" height="5" style="stroke: #A80036; stroke-width: 1.5;" width="10" x="262.5" y="64"/><rect fill="#90EE90" height="5" style="stroke: #A80036; stroke-width: 1.5;" width="10" x="262.5" y="85.2969"/><text fill="#000000" font-family="sans-serif" font-size="14" lengthAdjust="spacingAndGlyphs" textLength="99" x="277.5" y="81.9951">JsonPipeWriter</text><!--entity Stream <-> Pipe Adapter--><rect fill="#FEFECE" filter="url(#fiaqnykq2w2j8)" height="36.2969" style="stroke: #A80036; stroke-width: 1.5;" width="194" x="38" y="59"/><rect fill="#FEFECE" height="5" style="stroke: #A80036; stroke-width: 1.5;" width="10" x="33" y="64"/><rect fill="#FEFECE" height="5" style="stroke: #A80036; stroke-width: 1.5;" width="10" x="33" y="85.2969"/><text fill="#000000" font-family="sans-serif" font-size="14" lengthAdjust="spacingAndGlyphs" textLength="174" x="48" y="81.9951">Stream &lt;-&gt; Pipe Adapter</text><!--link JsonStreamReader to JsonReader--><path d="M803.688,95.031 C768.768,114.651 711.499,146.828 674.791,167.4525 " fill="none" id="JsonStreamReader-JsonReader" style="stroke: #A80036; stroke-width: 1.0;"/><polygon fill="#A80036" points="670.419,169.9088,680.2248,168.9886,674.7783,167.4601,676.3069,162.0137,670.419,169.9088" style="stroke: #A80036; stroke-width: 1.0;"/><!--link JsonPipeReader to JsonReader--><path d="M656.875,95.031 C653.431,113.798 647.88,144.0547 644.092,164.6998 " fill="none" id="JsonPipeReader-JsonReader" style="stroke: #A80036; stroke-width: 1.0;"/><polygon fill="#A80036" points="643.169,169.7286,648.7275,161.5982,644.0713,164.8107,640.8588,160.1545,643.169,169.7286" style="stroke: #A80036; stroke-width: 1.0;"/><!--link JsonStreamWriter to JsonWriter--><path d="M494.125,95.031 C497.569,113.798 503.12,144.0547 506.908,164.6998 " fill="none" id="JsonStreamWriter-JsonWriter" style="stroke: #A80036; stroke-width: 1.0;"/><polygon fill="#A80036" points="507.831,169.7286,510.1412,160.1545,506.9287,164.8107,502.2725,161.5982,507.831,169.7286" style="stroke: #A80036; stroke-width: 1.0;"/><!--link JsonPipeWriter to JsonWriter--><path d="M355.75,95.031 C388.735,114.571 442.745,146.5666 477.577,167.2004 " fill="none" id="JsonPipeWriter-JsonWriter" style="stroke: #A80036; stroke-width: 1.0;"/><polygon fill="#A80036" points="482.149,169.9088,476.4447,161.8801,477.8472,167.3603,472.367,168.7629,482.149,169.9088" style="stroke: #A80036; stroke-width: 1.0;"/><!--
@startuml
package "Lowest JSON Layer" {
  [JsonReader] #Yellow
  [JsonWriter] #LightGreen
}

package "Higher-level Types" {
  [JsonStreamReader] #Yellow
  [JsonPipeReader] #Yellow
  [JsonStreamWriter] #LightGreen
  [JsonPipeWriter] #LightGreen
  [Stream <-> Pipe Adapter]
}

[JsonStreamReader] - -> [JsonReader]
[JsonPipeReader] - -> [JsonReader]
[JsonStreamWriter] - -> [JsonWriter]
[JsonPipeWriter] - -> [JsonWriter]
@enduml

PlantUML version 1.2018.12(Sun Oct 21 10:15:15 UTC 2018)
(GPL source distribution)
Java Runtime: Java(TM) SE Runtime Environment
JVM: Java HotSpot(TM) 64-Bit Server VM
Java Version: 1.7.0_25-b15
Operating System: Linux
Default Encoding: UTF-8
Language: en
Country: US
--></g></svg>