<?xml version="1.0" encoding="UTF-8" standalone="no"?><svg xmlns="http://www.w3.org/2000/svg" xmlns:xlink="http://www.w3.org/1999/xlink" contentScriptType="application/ecmascript" contentStyleType="text/css" height="234px" preserveAspectRatio="none" style="width:510px;height:234px;" version="1.1" viewBox="0 0 510 234" width="510px" zoomAndPan="magnify"><defs><filter height="300%" id="f1ao9hvq5i5re6" width="300%" x="-1" y="-1"><feGaussianBlur result="blurOut" stdDeviation="2.0"/><feColorMatrix in="blurOut" result="blurOut2" type="matrix" values="0 0 0 0 0 0 0 0 0 0 0 0 0 0 0 0 0 0 .4 0"/><feOffset dx="4.0" dy="4.0" in="blurOut2" result="blurOut3"/><feBlend in="SourceGraphic" in2="blurOut3" mode="normal"/></filter></defs><g><!--cluster Lowest JSON Layer--><polygon fill="#FFFFFF" filter="url(#f1ao9hvq5i5re6)" points="56,135,211,135,218,157.2969,312,157.2969,312,222,56,222,56,135" style="stroke: #000000; stroke-width: 1.5;"/><line style="stroke: #000000; stroke-width: 1.5;" x1="56" x2="218" y1="157.2969" y2="157.2969"/><text fill="#000000" font-family="sans-serif" font-size="14" font-weight="bold" lengthAdjust="spacingAndGlyphs" textLength="149" x="60" y="149.9951">Lowest JSON Layer</text><!--cluster Layer on top--><polygon fill="#FFFFFF" filter="url(#f1ao9hvq5i5re6)" points="22,24,128,24,135,46.2969,488,46.2969,488,111,22,111,22,24" style="stroke: #000000; stroke-width: 1.5;"/><line style="stroke: #000000; stroke-width: 1.5;" x1="22" x2="135" y1="46.2969" y2="46.2969"/><text fill="#000000" font-family="sans-serif" font-size="14" font-weight="bold" lengthAdjust="spacingAndGlyphs" textLength="100" x="26" y="38.9951">Layer on top</text><!--entity JsonReader--><rect fill="#FFFF00" filter="url(#f1ao9hvq5i5re6)" height="36.2969" style="stroke: #A80036; stroke-width: 1.5;" width="99" x="196.5" y="170"/><rect fill="#FFFF00" height="5" style="stroke: #A80036; stroke-width: 1.5;" width="10" x="191.5" y="175"/><rect fill="#FFFF00" height="5" style="stroke: #A80036; stroke-width: 1.5;" width="10" x="191.5" y="196.2969"/><text fill="#000000" font-family="sans-serif" font-size="14" lengthAdjust="spacingAndGlyphs" textLength="79" x="206.5" y="192.9951">JsonReader</text><!--entity JsonWriter--><rect fill="#90EE90" filter="url(#f1ao9hvq5i5re6)" height="36.2969" style="stroke: #A80036; stroke-width: 1.5;" width="89" x="72.5" y="170"/><rect fill="#90EE90" height="5" style="stroke: #A80036; stroke-width: 1.5;" width="10" x="67.5" y="175"/><rect fill="#90EE90" height="5" style="stroke: #A80036; stroke-width: 1.5;" width="10" x="67.5" y="196.2969"/><text fill="#000000" font-family="sans-serif" font-size="14" lengthAdjust="spacingAndGlyphs" textLength="69" x="82.5" y="192.9951">JsonWriter</text><!--entity JsonDocument--><rect fill="#FFFF00" filter="url(#f1ao9hvq5i5re6)" height="36.2969" style="stroke: #A80036; stroke-width: 1.5;" width="122" x="185" y="59"/><rect fill="#FFFF00" height="5" style="stroke: #A80036; stroke-width: 1.5;" width="10" x="180" y="64"/><rect fill="#FFFF00" height="5" style="stroke: #A80036; stroke-width: 1.5;" width="10" x="180" y="85.2969"/><text fill="#000000" font-family="sans-serif" font-size="14" lengthAdjust="spacingAndGlyphs" textLength="102" x="195" y="81.9951">JsonDocument</text><!--entity JsonSerializer--><rect fill="#90EE90" filter="url(#f1ao9hvq5i5re6)" height="36.2969" style="stroke: #A80036; stroke-width: 1.5;" width="111" x="38.5" y="59"/><rect fill="#90EE90" height="5" style="stroke: #A80036; stroke-width: 1.5;" width="10" x="33.5" y="64"/><rect fill="#90EE90" height="5" style="stroke: #A80036; stroke-width: 1.5;" width="10" x="33.5" y="85.2969"/><text fill="#000000" font-family="sans-serif" font-size="14" lengthAdjust="spacingAndGlyphs" textLength="91" x="48.5" y="81.9951">JsonSerializer</text><!--entity JsonDeserializer--><rect fill="#FFFF00" filter="url(#f1ao9hvq5i5re6)" height="36.2969" style="stroke: #A80036; stroke-width: 1.5;" width="130" x="342" y="59"/><rect fill="#FFFF00" height="5" style="stroke: #A80036; stroke-width: 1.5;" width="10" x="337" y="64"/><rect fill="#FFFF00" height="5" style="stroke: #A80036; stroke-width: 1.5;" width="10" x="337" y="85.2969"/><text fill="#000000" font-family="sans-serif" font-size="14" lengthAdjust="spacingAndGlyphs" textLength="110" x="352" y="81.9951">JsonDeserializer</text><!--link JsonDocument to JsonReader--><path d="M246,95.031 C246,113.798 246,144.0547 246,164.6998 " fill="none" id="JsonDocument-JsonReader" style="stroke: #A80036; stroke-width: 1.0;"/><polygon fill="#A80036" points="246,169.7286,250,160.7286,246,164.7286,242,160.7286,246,169.7286" style="stroke: #A80036; stroke-width: 1.0;"/><!--link JsonDeserializer to JsonReader--><path d="M381.844,95.031 C353.099,114.492 306.108,146.3056 275.619,166.9472 " fill="none" id="JsonDeserializer-JsonReader" style="stroke: #A80036; stroke-width: 1.0;"/><polygon fill="#A80036" points="271.245,169.9088,280.9402,168.1758,275.3855,167.1058,276.4554,161.5511,271.245,169.9088" style="stroke: #A80036; stroke-width: 1.0;"/><!--link JsonSerializer to JsonWriter--><path d="M97.5938,95.031 C101.5538,113.798 107.938,144.0547 112.294,164.6998 " fill="none" id="JsonSerializer-JsonWriter" style="stroke: #A80036; stroke-width: 1.0;"/><polygon fill="#A80036" points="113.356,169.7286,115.4111,160.0965,112.3234,164.8364,107.5836,161.7487,113.356,169.7286" style="stroke: #A80036; stroke-width: 1.0;"/><!--
@startuml
package "Lowest JSON Layer" {
  [JsonReader] #Yellow
  [JsonWriter] #LightGreen
}

package "Layer on top" {
  [JsonDocument] #Yellow
  [JsonSerializer] #LightGreen
  [JsonDeserializer] #Yellow
}

[JsonDocument] - -> [JsonReader]
[JsonDeserializer] - -> [JsonReader]
[JsonSerializer] - -> [JsonWriter]
@enduml

PlantUML version 1.2018.12(Sun Oct 21 10:15:15 UTC 2018)
(GPL source distribution)
Java Runtime: Java(TM) SE Runtime Environment
JVM: Java HotSpot(TM) 64-Bit Server VM
Java Version: 1.7.0_25-b15
Operating System: Linux
Default Encoding: UTF-8
Language: en
Country: US
--></g></svg>